<svg viewBox="0 0 300 420">
				<rect x="12" y="12" width="276" height="396" rx="8" />
				<path
					d="M52,30 h196 a17,17 0 0 0 22,22 v316 a17,17 0 0 0 -22,22 h-196 a17,17 0 0 0 -22,-22 v-316 a17,17 0 0 0 22,-22"
				/>
				<circle cx="36" cy="36" r="6" />
				<circle cx="264" cy="36" r="6" />
				<circle cx="36" cy="384" r="6" />
				<circle cx="264" cy="384" r="6" />
				<path
					d="M128,188 l44,44 m0,-44 l-44,44 m-38,-13 a9,9 0 0 1 0,-18 a69,69 0 0 1 69,69 a9,9 0 0 1 -18,0 a69,69 0 0 1 69,-69 a9,9 0 0 1 0,18 a69,69 0 0 1 -69,-69 a9,9 0 0 1 18,0 a69,69 0 0 1 -69,69"
				/>
				<circle cx="115" cy="175" r="2" />
				<circle cx="185" cy="175" r="2" />
				<circle cx="115" cy="245" r="2" />
				<circle cx="185" cy="245" r="2" />
</svg>